<svg xmlns="http://www.w3.org/2000/svg" viewBox="0 0 75.36 75.36"><defs><style>.cls-1{fill:#007f38;stroke:#6d6e71;stroke-miterlimit:10;stroke-width:0.36px;}.cls-2{fill:#fff;}</style></defs><g id="Layer_2" data-name="Layer 2"><g id="graphics"><circle class="cls-1" cx="37.68" cy="37.68" r="37.5"/><path class="cls-2" d="M32.29,47.32c-.23.29-.44.57-.67.83a8.05,8.05,0,0,0-1.95,5.34c0,1.19,0,2.39,0,3.58,0,.57-.21.8-.79.8-1.49,0-3,0-4.47,0-.62,0-.83-.22-.82-.84,0-1.76,0-3.51,0-5.27A1.17,1.17,0,0,0,23,50.61a9.35,9.35,0,0,1-4.49-7.34,2.33,2.33,0,0,1,.83-2.08A1.38,1.38,0,0,0,19.84,40q0-4,0-8a.9.9,0,0,0-.59-1,2.57,2.57,0,0,1-1.57-2.58c0-2.68,0-5.36,0-8a2.63,2.63,0,0,1,2.81-2.89c1.46-.05,2.92,0,4.38,0,1.67,0,3.34,0,5,0,2.26,0,3.22,1,3.22,3.21q0,3.81,0,7.6a2.64,2.64,0,0,1-2.93,2.94c-2.29,0-4.59,0-6.88,0-.93,0-.93,0-.94.95,0,2.56,0,5.12,0,7.69a1.65,1.65,0,0,0,.53,1.33,2.58,2.58,0,0,1,.73,1.38c.37,3.19,2.8,4.46,5.63,4.68C30.23,47.38,31.21,47.32,32.29,47.32Z"/><path class="cls-2" d="M44.28,47.41a30.53,30.53,0,0,0,3.78-.28c2.51-.48,3.92-1.93,4.62-4.55.77-2.89.25-5.73.48-8.58.05-.66,0-1.32,0-2s-.22-.78-.79-.77c-1.4,0-2.8,0-4.21,0-2.14,0-3.1-1-3.1-3.13q0-3.84,0-7.69a2.65,2.65,0,0,1,2.79-2.91q3.22-.08,6.44,0a2.64,2.64,0,0,1,2.78,2.93c0,2.65,0,5.3,0,8a2.92,2.92,0,0,1-.87,2.17,1.44,1.44,0,0,0-.38.93c0,2.77,0,5.54,0,8.31a.93.93,0,0,0,.55.91,2.54,2.54,0,0,1,1.29,2.73,9.31,9.31,0,0,1-4.23,6.93A1.62,1.62,0,0,0,52.57,52c0,1.63,0,3.27,0,4.91,0,.58-.14.89-.8.87-1.4,0-2.8,0-4.2,0-.58,0-.8-.22-.8-.79,0-1.34,0-2.68-.08-4a8.24,8.24,0,0,0-2.21-5.25C44.44,47.63,44.37,47.53,44.28,47.41Z"/><path class="cls-2" d="M38.3,57.76c-1.73,0-3.45,0-5.18,0-.65,0-.92-.19-.89-.86.06-1.48,0-3,.15-4.45a6,6,0,0,1,11.82.31c.13,1.42.08,2.85.12,4.28,0,.54-.23.72-.75.72C41.81,57.75,40.05,57.76,38.3,57.76Z"/><path class="cls-2" d="M38.13,45.77a5.13,5.13,0,1,1,5.25-5A5.11,5.11,0,0,1,38.13,45.77Z"/><path class="cls-2" d="M26.09,40.38a4,4,0,0,1,4.82-3.93c.69.17.75.27.45.9a7.36,7.36,0,0,0-.17,6.22c.28.67.22.77-.54.9A4,4,0,0,1,26.09,40.38Z"/><path class="cls-2" d="M50.13,40.49a4.06,4.06,0,0,1-4.22,4c-.84-.06-.93-.2-.62-1a7.39,7.39,0,0,0-.21-6.22c-.32-.66-.29-.71.42-.88C47.78,35.86,50.13,37.92,50.13,40.49Z"/></g></g></svg>