<svg xmlns="http://www.w3.org/2000/svg" viewBox="0 0 75 75"><defs><style>.cls-1{fill:#fabf4d;}.cls-2{fill:#fff;}</style></defs><g id="Layer_2" data-name="Layer 2"><g id="graphics"><circle class="cls-1" cx="37.5" cy="37.5" r="37.5"/><path class="cls-2" d="M26.51,41.91c-2.92,0-5.83,0-8.74,0-2.42,0-2.91-.69-2.43-3.09a11.39,11.39,0,0,1,22.46.41c.37,2.18,0,2.65-2.3,2.68C32.5,41.93,29.5,41.9,26.51,41.91Z"/><path class="cls-2" d="M19,21.83a6.61,6.61,0,0,1,6.61-6.68,6.81,6.81,0,0,1,6.61,6.73,6.75,6.75,0,0,1-6.79,6.54A6.6,6.6,0,0,1,19,21.83Z"/><path class="cls-2" d="M35.44,21.87a6.36,6.36,0,0,1,6.48-6.71,6.83,6.83,0,0,1,6.53,6.58,6.65,6.65,0,0,1-6.37,6.68A6.42,6.42,0,0,1,35.44,21.87Z"/><path class="cls-2" d="M41,45.63c0-1.49,0-3,0-4.48a1.64,1.64,0,0,1,1.62-1.84c1.22-.05,1.81.72,1.83,1.89,0,2.49,0,5,0,7.47s0,2.37,2.36,2.84c1.47.29,1.72.73.9,2-1.22,1.88-2.55,3.68-3.85,5.51-.79,1.11-1.6,1-2.36,0-1.29-1.83-2.63-3.63-3.85-5.51-.79-1.23-.52-1.66,1-2,2.25-.44,2.25-.44,2.32-2.63V45.63Z"/><path class="cls-2" d="M52.51,53.39c0-1.16,0-2.32,0-3.48a2,2,0,0,0-1.9-2.41c-2.13-.4-2.21-.67-1-2.48,1.08-1.57,2.26-3.08,3.37-4.63.76-1,1.61-1.19,2.42-.14,1.37,1.77,2.68,3.58,4,5.41.75,1.05.41,1.59-.86,1.84-2.41.49-2.48.62-2.51,3.11,0,2.32,0,4.64,0,7,0,1.14-.19,2.29-1.67,2.27s-1.81-1-1.83-2.23c0-1.41,0-2.82,0-4.23Z"/><path class="cls-2" d="M52.55,36.52c0,.72-2.56,3.3-3.36,4.25a.89.89,0,0,1-1.63-.49,4.9,4.9,0,0,0-3.51-4c-1.35-.36-2.71.4-3.52,0a7.27,7.27,0,0,1-2.73-3.91c0-.9,2.23-1.95,5-1.95C48,30.38,52.55,34.3,52.55,36.52Z"/></g></g></svg>