<svg xmlns="http://www.w3.org/2000/svg" viewBox="0 0 75.36 75.36"><defs><style>.cls-1{fill:#a0c958;stroke:#6d6e71;stroke-miterlimit:10;stroke-width:0.36px;}.cls-2{fill:#fff;}</style></defs><g id="Layer_2" data-name="Layer 2"><g id="graphics"><circle class="cls-1" cx="37.68" cy="37.68" r="37.5"/><path class="cls-2" d="M50.16,60.58h-1c-2.28,0-2.38-.13-2.76-2.28a10.05,10.05,0,0,1-.18-1.73c0-1.52-.39-2.61-2.22-2.58a1.17,1.17,0,0,1-1.25-1.67c1.16-3.4,1.2-7.28,4.13-9.94.73-.67.38-1.16-.17-1.65a5.55,5.55,0,0,1-2.1-4.08c-.13-2.85,1.21-5.07,3.63-5.88A5.69,5.69,0,0,1,54.3,40c-1.13,1.16-1.44,1.81-.07,3.11,1,.9,1.34,2.44,1.82,3.75.59,1.64,1,3.33,1.5,5,.31,1.1.18,2.08-1.26,2.09-1.7,0-2.11,1-2.1,2.43,0,.17,0,.33,0,.5C53.9,60.56,53.87,60.58,50.16,60.58Zm0-25.75c-.93.91-2.46,1.4-2.89,2.27s1.66,2.21,2.92,2.13c1.43,0,3.3-1.54,2.89-2.2C52.55,36.19,51.1,35.7,50.14,34.83Z"/><path class="cls-2" d="M48.23,21.46c-.27.72-.47,2.37-1.37,3.42-2.41,2.83-5.09,5.43-7.73,8.06a2.1,2.1,0,0,1-3,0,29.13,29.13,0,0,1-7.92-8.52,8.25,8.25,0,0,1-.95-2.82,5.67,5.67,0,0,1,2.76-6,5,5,0,0,1,6.06.3c1.24,1,2,.89,3.22,0A4.93,4.93,0,0,1,45,15.44C47.05,16.55,48.11,18.33,48.23,21.46Z"/><path class="cls-2" d="M17.73,47.54c-.25-2.65.38-4.89,2.5-6.52a1,1,0,0,0,.18-1.66,6.93,6.93,0,0,1-1.07-1.66,5.47,5.47,0,0,1,1.85-6.86,5.89,5.89,0,0,1,7,.47,5.45,5.45,0,0,1,.78,7.07c-1.18,1.5-.94,2.22.31,3.44,2.25,2.2,2.08,5.13,1.79,8A1.92,1.92,0,0,1,29.73,51c-1.49.29-1.8,1.31-1.93,2.53-.19,1.73-.41,3.46-.51,5.2-.08,1.41-.8,1.91-2.1,1.83a4.17,4.17,0,0,0-.5,0c-3,.05-3.2-.17-3.44-3.18-.1-1.15-.21-2.31-.32-3.47-.14-1.45-.27-2.84-2.25-3-.35,0-.81-.78-.91-1.26A9.64,9.64,0,0,1,17.73,47.54Zm9.49-11.86c-3.64,0-4.18-1.13-5.56-1.13,0,2.17.67,3.72,2.55,3.72A3,3,0,0,0,27.22,35.68Z"/></g></g></svg>