<svg xmlns="http://www.w3.org/2000/svg" viewBox="0 0 75 75"><defs><style>.cls-1{fill:#0cdac2;}.cls-2{fill:#fff;}</style></defs><g id="Layer_2" data-name="Layer 2"><g id="graphics"><circle class="cls-1" cx="37.5" cy="37.5" r="37.5"/><path class="cls-2" d="M27.09,14.59c8.29.56,12.45,6.57,12.24,12.81A12.19,12.19,0,0,1,26.74,39.32,12.5,12.5,0,0,1,14.58,26.4,12.51,12.51,0,0,1,27.09,14.59Zm2.08,15.27c0,.93-.6,1.3-2.21,1.3H24.12a1.19,1.19,0,0,0-1.22,1.25c0,.86.39,1.39,1,1.39h1.65s0,.44,0,1A1.38,1.38,0,0,0,27,36.18a1.71,1.71,0,0,0,1.65-1.49v-1c1.9,0,3.45-2.08,3.41-3.78a4.14,4.14,0,0,0-2.39-3.74c-1-.54-4.66-1.26-4.66-2.64s1-1.32,1.78-1.32l3,0a1.3,1.3,0,0,0,1.46-1.32c0-.94-.68-1.31-2.68-1.31,0,0,0-.48,0-1.12s-.3-1.26-1.49-1.26-1.41.66-1.41,1.17,0,1.26,0,1.26a3.89,3.89,0,0,0-3.63,4c0,2.29,1.07,3,3,3.86C26,27.88,29.17,29,29.17,29.86Z"/><path class="cls-2" d="M48.87,60.39c-1.75,0-3.5,0-5.24,0-3.26-.13-5.5-1.84-5.74-5.08,0-4.48-.13-8,0-11.93a5,5,0,0,1,1.19-3.24c.82-1.28,1.41-1.24,1.41-3.61,0-1.59.83-2.24,2-2.2a1.67,1.67,0,0,1,1.76,1.83c0,1.65.1,3.54-1.12,4.78a6.39,6.39,0,0,0-1.73,5c.09,2.58,0,5.16,0,7.74,0,2.28.55,2.78,2.83,2.8,3.24.05,6.49.05,9.73,0,2,0,2.48-.49,2.52-2.54.06-3.08,0-6.2,0-10,0-1.84-.84-2.48-1.58-3.49-1-1.4-1-2.17-1-3.78,0-1.41.57-2.36,1.77-2.37s1.76.61,1.76,2.13c0,2.07,1.75,3,2.14,4.15A10.24,10.24,0,0,1,60.36,45c0,3.07.1,6.15.06,9.23-.07,3.78-2.26,6-6.06,6.17C52.53,60.45,50.7,60.39,48.87,60.39Z"/><path class="cls-2" d="M54.16,27.64a11.3,11.3,0,0,1-.69,1.71c-1,1.54-1.95,3.09-3,4.55s-1.92,1.36-2.94,0-2-3-3-4.54c-.7-1.12-.95-2.86.63-2.86,2,0,1.25-1.55-1.78-3.76a1.68,1.68,0,0,1-.42-2.57,2,2,0,0,1,3-.09,12.19,12.19,0,0,1,3.53,4.53c.51,1.3.29,1.62,2.83,1.62C53.47,26.2,54.16,26.66,54.16,27.64Z"/><path class="cls-2" d="M43.53,47c-.07-2.28,1.62-4.35,3.79-4,.7.1,1.34,1.23,2,1.24s1.44-1.11,2.15-1.28a3.21,3.21,0,0,1,3.4,1.49,3.5,3.5,0,0,1-.19,4.07c-1.41,1.72-3,3.31-4.57,4.89a1.32,1.32,0,0,1-1.29,0c-1.69-1.7-3.32-3.46-4.91-5.25A2.78,2.78,0,0,1,43.53,47Z"/></g></g></svg>