<svg xmlns="http://www.w3.org/2000/svg" viewBox="0 0 75.36 75.36"><defs><style>.cls-1{fill:#6e3696;stroke:#6d6e71;stroke-miterlimit:10;stroke-width:0.36px;}.cls-2{fill:#fff;}</style></defs><g id="Layer_2" data-name="Layer 2"><g id="graphics"><circle class="cls-1" cx="37.68" cy="37.68" r="37.5"/><path class="cls-2" d="M54.85,28.66c-1.15-.52-3.16-.8-4,.57a.37.37,0,0,0,0,.11c-.47,1,.11,1.94,1.76,3a2.9,2.9,0,0,1,.62.49,2.15,2.15,0,0,1-.41.34q-3.8,2.72-7.6,5.39-3.51,2.48-7,5c-.5.35-.59.29-.89.07-2.43-1.74-4.88-3.46-7.32-5.19L22.49,33.1a1.47,1.47,0,0,1-.33-.3,1.69,1.69,0,0,1,.37-.31c.06,0,.21-.1.34-.16a4.18,4.18,0,0,0,.9-.45,2.18,2.18,0,0,0,.89-2.17,2.14,2.14,0,0,0-2-1.52,4.5,4.5,0,0,0-3.5,1.54A8.18,8.18,0,0,0,17.76,34c-.1,5.39-.08,10.87-.06,16.16v2.69c0,4.43,1.78,6.17,6.3,6.19,3.28,0,6.55,0,9.83,0H46l5.67,0c4.13,0,5.92-1.85,6-6.06,0-1.06,0-2.12,0-3.18V44.27c0-3.46,0-6.92,0-10.38C57.69,32.91,57.7,30,54.85,28.66ZM21.88,39V38.1l.84.59c4,2.8,8.2,5.69,12.22,8.62a4.17,4.17,0,0,0,5.45,0c4.05-2.94,8.24-5.85,12.3-8.67l.79-.55v0c0,4.47,0,9.26,0,14,0,2.5-.2,2.68-2.66,2.69H24.56c-2.54,0-2.64-.29-2.67-2.45C21.84,47.94,21.86,43.4,21.88,39Z"/><path class="cls-2" d="M28.9,27.08a2.16,2.16,0,0,0,2.41.28,5.63,5.63,0,0,0,1.19-1l.12-.11,1.22-1.21c.52-.52,1-1,1.56-1.54,0,.41.07.74.07.86V27.1c0,2.38,0,4.85,0,7.28v.28a3.42,3.42,0,0,0,.72,2.56,2.14,2.14,0,0,0,1.55.61c2,0,2.06-2.28,2.1-3.14v-.16c.08-1.44.06-2.89.05-4.29,0-.56,0-1.11,0-1.67,0-1.24.06-3.33.12-5l.88.87c.76.75,1.51,1.51,2.3,2.23a2.47,2.47,0,0,0,2.85.74,1.37,1.37,0,0,0,.48-.38,2.63,2.63,0,0,0-.35-3.32c-2.06-2.17-4.48-4.5-6.78-6.69a2.41,2.41,0,0,0-3.12-.21c-2.6,2.47-5.16,5.08-7.55,7.53a1.78,1.78,0,0,0-.41,1.58A2.15,2.15,0,0,0,28.9,27.08Z"/></g></g></svg>