<svg xmlns="http://www.w3.org/2000/svg" viewBox="0 0 75 75"><defs><style>.cls-1{fill:#265fa8;}.cls-2{fill:#fff;}</style></defs><g id="Layer_2" data-name="Layer 2"><g id="graphics"><circle class="cls-1" cx="37.5" cy="37.5" r="37.5"/><path class="cls-2" d="M37.54,60.48c-2.33,0-4.66.05-7,0s-2.7-.68-2.25-3a9.84,9.84,0,0,1,3.92-5.9c1.64-1.3,1.64-1.29.29-2.78a7.14,7.14,0,0,1,.16-10.3,7,7,0,0,1,9.91.11,7.15,7.15,0,0,1,.29,9.75c-1.69,1.94-1.68,1.93.45,3.55a8.61,8.61,0,0,1,3.55,5.81c.31,2.16-.15,2.71-2.33,2.76S39.88,60.49,37.54,60.48ZM37.35,48a4.4,4.4,0,0,0,4.08-2.77c.33-1,.28-1.7-1-1.65a10.89,10.89,0,0,1-5.8-1.12c-.86-.46-1.19.06-1.31.86A4.12,4.12,0,0,0,37.35,48Z"/><path class="cls-2" d="M55,60.49H53.78c-3.34,0-3.32,0-4.11-3.3a28.25,28.25,0,0,0-1-3.07,1.31,1.31,0,0,1,1.14-2c4.58-.76,9,1,10.3,6.28.37,1.46,0,1.92-1.59,2-1.16.08-2.32,0-3.48,0Z"/><path class="cls-2" d="M19.79,60.45c-1.16,0-2.32,0-3.48,0s-1.68-.59-1.49-1.78C15.57,54,20.39,51,25.36,52.22c.86.22,1.11.87.88,1.75-.47,1.75-.81,3.54-1.4,5.25a2.34,2.34,0,0,1-1.59,1.19,22.17,22.17,0,0,1-3.46.05Z"/><path class="cls-2" d="M56.45,45.06A4.23,4.23,0,0,1,52,49.62a4.57,4.57,0,1,1,0-9.12A4.31,4.31,0,0,1,56.45,45.06Z"/><path class="cls-2" d="M23.12,49.63a4.57,4.57,0,1,1,.08-9.13,4.57,4.57,0,1,1-.08,9.13Z"/><path class="cls-2" d="M20.35,26c-.4-.42-.82-.66-.9-1a5,5,0,0,0-4-4,1.14,1.14,0,0,1-.71-.84,1.12,1.12,0,0,1,.68-.87,4.38,4.38,0,0,0,4-3.81,1.11,1.11,0,0,1,.82-.71,1.14,1.14,0,0,1,.87.69A4.81,4.81,0,0,0,25,19.53c.3.07.57.54.67.88,0,.14-.37.57-.62.62A4.47,4.47,0,0,0,21.14,25C21.09,25.29,20.69,25.56,20.35,26Z"/><path class="cls-2" d="M51.63,26.35c-.44.72-.75,1.28-1.11,1.8-1.08,1.57-2.23,3.08-3.23,4.69-.65,1.06-1.26,2-2.7,1.47-1.19-.45-1.62-1.66-.73-3.13a46.88,46.88,0,0,1,4.33-6,2.69,2.69,0,0,1,2.24-.35C50.89,25,51.2,25.77,51.63,26.35Z"/><path class="cls-2" d="M31.66,33c-.25.29-.61,1.09-1.18,1.27a2.19,2.19,0,0,1-1.95-.46c-1.67-2.14-3.22-4.38-4.69-6.67a1.84,1.84,0,0,1,.2-1.76A2.47,2.47,0,0,1,26,24.74C27.63,25.07,31.66,30.79,31.66,33Z"/><path class="cls-2" d="M37.66,14.49c.29.4.64.68.72,1a3.93,3.93,0,0,0,2.76,2.92c.34.12.57.53.85.8-.32.31-.6.78-1,.89A3.45,3.45,0,0,0,38.29,23c-.06.32-.6.86-.75.8-.39-.13-.92-.49-1-.84a3.61,3.61,0,0,0-2.76-2.87c-1-.34-1.15-1.2-.18-1.54a4.36,4.36,0,0,0,3.21-3.4C36.87,14.93,37.29,14.78,37.66,14.49Z"/><path class="cls-2" d="M39.42,30a4.89,4.89,0,0,1-.2,1.95c-.37.63-1.11,1.42-1.71,1.44A2.26,2.26,0,0,1,35.78,32a15.28,15.28,0,0,1-.14-4.17,1.71,1.71,0,0,1,1.76-1.74c1.23,0,1.78.77,1.92,1.86a16.52,16.52,0,0,1,0,2Z"/></g></g></svg>