<svg xmlns="http://www.w3.org/2000/svg" viewBox="0 0 75 75"><defs><style>.cls-1{fill:#004d80;}.cls-2{fill:#fff;}</style></defs><g id="Layer_2" data-name="Layer 2"><g id="graphics"><circle class="cls-1" cx="37.5" cy="37.5" r="37.5"/><path class="cls-2" d="M49.1,44.94c-2.58,0-5.16,0-7.74,0-2.78,0-3.83-1-3.86-3.72-.06-4.49,0-9,0-13.48a5.89,5.89,0,0,1,.41-2.17,6.22,6.22,0,0,0,.55-4.36,5.22,5.22,0,0,1,9.16-4.39C49,18.4,49,18.4,50.3,16.89a5.54,5.54,0,0,1,7.19-1.26c2.14,1.32,2.88,3.89,1.76,6.59-.41,1-.7,1.68.27,2.6a3.79,3.79,0,0,1,.89,2.47c.08,4.74.08,9.49,0,14.23,0,2.42-1.08,3.37-3.6,3.41S51.68,44.94,49.1,44.94Zm5.73-12.49c-.09-2.33-1.72-3.82-3.75-3.49-.7.11-1.43,1.17-2.11,1.18s-1.3-1.05-2-1.2a2.91,2.91,0,0,0-3.37,1.52,3.07,3.07,0,0,0,.31,3.71c1.3,1.5,2.67,2.94,4,4.38.58.6,1.28.82,1.95.12,1.43-1.5,2.87-3,4.21-4.56A5.28,5.28,0,0,0,54.83,32.45ZM52.37,22.1c1.28.28,3.47-1.28,3.47-2.14a1.44,1.44,0,0,0-1.5-1.36C53.61,18.6,52,20.35,52.37,22.1ZM46,21.86c-.31-1.9-1.78-3.26-2.28-3.26s-1.55.57-1.55,1.36A2.72,2.72,0,0,0,46,21.86Z"/><path class="cls-2" d="M14.55,54.28c.11-6.59-1-4.86,4.76-7.77,5-2.56,10.06-2.24,15,.44a8.93,8.93,0,0,0,3.28.89c1.56.15,3.18-.07,4.72.15,2,0,2.53,3,.44,3.4a7.9,7.9,0,0,1-2.91.42c-1.66.08-3.23-.14-4.88,0-.61,0-1.19,0-1.19.69s.33,1,1.37,1,5.35.08,7,.08,3.06-1.34,4.66-2.35,5.47-2.57,7.24-2.57c2.44,0,3.68,1,3.68,1.92,0,.62-1.46,1.18-2.34,1.65Q48.92,55.69,42.34,59a10.28,10.28,0,0,1-8.22.58c-3.38-1.15-6.78-2.26-10.15-3.46a3.42,3.42,0,0,0-3.49.41,48.36,48.36,0,0,1-4.21,2.68c-1.22.7-1.62.48-1.7-.95S14.55,55.61,14.55,54.28Z"/></g></g></svg>