<svg xmlns="http://www.w3.org/2000/svg" viewBox="0 0 75 75"><defs><style>.cls-1{fill:#f49ab3;}.cls-2{fill:#fff;}</style></defs><g id="Layer_2" data-name="Layer 2"><g id="graphics"><circle class="cls-1" cx="37.5" cy="37.5" r="37.5"/><path class="cls-2" d="M49.06,26.06A11.5,11.5,0,1,1,37.49,14.52,11.5,11.5,0,0,1,49.06,26.06Zm-8.48,2.22c0,.65-1,.71-1.5.73-1.75.08-3.5,0-5.24.07-.9,0-1.72.25-1.79,1.31,0,1.49,1.06,1.55,2.78,1.55,1,0,1.55,0,1.55,1.22,0,1,2.76,1,2.76-.24,0-.83.2-1.26,1.08-1.26,1.83,0,3.06-2,2.83-3.85a3.63,3.63,0,0,0-3.62-3.15c-1.07-.1-2.16,0-3.23-.09-.48-.06-1.38-.16-1.38-.74s.9-.73,1.38-.76c1.49-.11,3-.05,4.49-.06,1.09,0,2.45,0,2.55-1.34S42,20.13,40.91,20.13c-1.29,0-2-.28-2-1.05a1.35,1.35,0,1,0-2.69,0c0,.62-.14,1.09-.85,1.09-2.48,0-3.57,2.45-3.21,4.29s1.7,2.78,4.1,2.93c1.07.06,2.16,0,3.23.1C39.81,27.55,40.58,27.63,40.58,28.28Z"/><path class="cls-2" d="M37.76,39.45c4.41,0,8.82,0,13.23,0,2.8,0,3.75.9,3.92,3.67a22.11,22.11,0,0,1-.06,3.73c-.12,1.19-.8,2.12-2.09,2s-1.61-1-1.75-2.09c-.42-3.37-.44-3.36-3.72-3.37-1.75,0-3.5,0-5.24,0-2.37,0-2.37,0-2.49,2.32,0,.5.19,3.14-1.91,3.14s-2.08-2.83-2-3.49c.1-1.56-.69-2-2.12-2-2.41.06-4.83.07-7.24,0-1.47,0-2.08.27-2.08,2,0,2.54-.72,3.37-1.92,3.37s-1.55-1.12-1.55-2.13a29.35,29.35,0,0,1,.08-5.56c.25-1.48,1.85-1.68,3.26-1.68C28.61,39.46,33.19,39.45,37.76,39.45Z"/><path class="cls-2" d="M37.71,50.94c.83,0,1.66,0,2.48,0,1.94.07,2.22.29,2.28,2.12s0,3.65,0,5.47c0,1.36-.68,2-2,1.94q-3,0-6,0a1.56,1.56,0,0,1-1.77-1.64q-.06-3.11,0-6.21c0-1.24.79-1.72,2-1.69,1,0,2,0,3,0Z"/><path class="cls-2" d="M27.07,55.75a4.87,4.87,0,0,1-4.84,4.68,4.82,4.82,0,0,1-4.68-4.83,4.76,4.76,0,0,1,9.52.15Z"/><path class="cls-2" d="M48.58,58.08c1-1.9,1.88-3.87,2.91-5.76.91-1.68,1.72-1.73,2.6-.12,1.12,2,2.15,4.11,3.11,6.22.57,1.26.18,1.93-1.21,2-2.14.11-4.3,0-6.45,0C48.26,60.4,47.74,59.66,48.58,58.08Z"/></g></g></svg>