<svg xmlns="http://www.w3.org/2000/svg" viewBox="0 0 75.36 75.36"><defs><style>.cls-1{fill:#f88a20;stroke:#6d6e71;stroke-miterlimit:10;stroke-width:0.36px;}.cls-2{fill:#fff;}</style></defs><g id="Layer_2" data-name="Layer 2"><g id="graphics"><circle class="cls-1" cx="37.68" cy="37.68" r="37.5"/><path class="cls-2" d="M36.16,30.82c0,2,.14,4,0,6a6.45,6.45,0,0,0,2.29,5.71c3.3,3,6.39,6.3,9.56,9.49,1.76,1.78,1.72,1.86,0,3.52a16.17,16.17,0,0,1-8.35,4.21c-15.31,2.91-24.9-7.84-24.86-19.46,0-10.51,8.81-19.34,18.93-19.32,2.25,0,2.43.16,2.47,2.39C36.19,25.83,36.16,28.33,36.16,30.82Z"/><path class="cls-2" d="M49.92,35c-2.41,0-4.82.06-7.23,0-2-.06-2.57-.63-2.59-2.56q-.09-7.59,0-15.2c0-1.73.61-2.14,2.37-2A19.15,19.15,0,0,1,59.56,32c.27,2.47-.11,2.91-2.65,2.94-2.33,0-4.66,0-7,0Z"/><path class="cls-2" d="M50.61,37.91c2.66,0,5.32,0,8,0,1.5,0,2.12.65,2,2.14a20.79,20.79,0,0,1-5,11.76c-1,1.13-1.78,1.18-2.87.07-3.66-3.75-7.41-7.41-11.08-11.16a6.49,6.49,0,0,1-.91-1.91A6.93,6.93,0,0,1,42.87,38C45.44,37.85,48,37.91,50.61,37.91Z"/></g></g></svg>