<svg xmlns="http://www.w3.org/2000/svg" viewBox="0 0 75.36 75.36"><defs><style>.cls-1{fill:#e12a8b;stroke:#6d6e71;stroke-miterlimit:10;stroke-width:0.36px;}.cls-2{fill:#fff;}</style></defs><g id="Layer_2" data-name="Layer 2"><g id="graphics"><circle class="cls-1" cx="37.68" cy="37.68" r="37.5"/><path class="cls-2" d="M51.62,16.86H56c1.22,0,1.69.44,1.69,1.62,0,2.94,0,5.88,0,8.82a1.36,1.36,0,0,1-2.46,1c-.64-.65-1.3-1.27-1.93-1.93a.71.71,0,0,0-1.21,0q-1.76,1.9-3.53,3.79c-.81.86-1.6,1.74-2.44,2.58a4.13,4.13,0,0,1-5.48.49c-1.62-1.17-3.14-2.47-4.7-3.72-1.12-.89-1.37-.89-2.37.11q-5,5-10,10.05a2.56,2.56,0,0,1-4.19-2.91,5.71,5.71,0,0,1,.81-1L31.48,24.48a4.31,4.31,0,0,1,6-.43c1.58,1.18,3.12,2.41,4.68,3.61.76.58,1.07.57,1.72-.12,1.53-1.63,3-3.29,4.57-4.93a.67.67,0,0,0,0-1.09c-.8-.78-1.62-1.55-2.37-2.39a2.13,2.13,0,0,1-.49-1.2c0-.66.5-1.05,1.32-1.06,1.58,0,3.15,0,4.73,0Z"/><path class="cls-2" d="M47.23,58.5c-2,0-3.94,0-5.9,0a2.55,2.55,0,0,1-2.74-2.8,2.21,2.21,0,0,1,1.48-2.09,5.11,5.11,0,0,1,1.77-.3c3.54,0,7.08,0,10.62,0a6.63,6.63,0,0,1,1,0,2.59,2.59,0,0,1-.33,5.16C51.16,58.52,49.19,58.5,47.23,58.5Z"/><path class="cls-2" d="M28.06,58.5c-2,0-4,0-6,0a2.58,2.58,0,0,1-2.54-3.35,2.41,2.41,0,0,1,1.66-1.66,4.34,4.34,0,0,1,1.34-.19H33.61a3.14,3.14,0,0,1,2.34.8,2.58,2.58,0,0,1-1.89,4.41C32.06,58.52,30.06,58.5,28.06,58.5Z"/><path class="cls-2" d="M26.41,45.47c1.91,0,3.82,0,5.73,0A2.61,2.61,0,0,1,35,48a2.58,2.58,0,0,1-2.67,2.71c-.67,0-1.34,0-2,0-3.12,0-6.24,0-9.36,0a6.37,6.37,0,0,1-1.44-.17,2.45,2.45,0,0,1-1.78-2.08A2.33,2.33,0,0,1,19,45.91a4.76,4.76,0,0,1,1.82-.43c1.88,0,3.76,0,5.64,0Z"/><path class="cls-2" d="M49,50.68H43.24a2.67,2.67,0,0,1-2.64-1.43,2.48,2.48,0,0,1,1.47-3.59,4.89,4.89,0,0,1,1.43-.19H54.41a5,5,0,0,1,1.44.2,2.53,2.53,0,0,1,0,4.81,4.72,4.72,0,0,1-1.34.19C52.67,50.69,50.82,50.68,49,50.68Z"/><path class="cls-2" d="M47.16,42.84c-1.79,0-3.58,0-5.37,0a5.7,5.7,0,0,1-1.43-.16,2.52,2.52,0,0,1-.73-4.44,4,4,0,0,1,1.87-.56c3.79-.05,7.57,0,11.36,0a4.4,4.4,0,0,1,1.25.19,2.52,2.52,0,0,1,1.75,2.58,2.45,2.45,0,0,1-2.08,2.3,8.8,8.8,0,0,1-1.26.11Z"/></g></g></svg>