<svg xmlns="http://www.w3.org/2000/svg" viewBox="0 0 75 75"><defs><style>.cls-1{fill:#f16363;}.cls-2{fill:#fff;}</style></defs><g id="Layer_2" data-name="Layer 2"><g id="graphics"><circle class="cls-1" cx="37.5" cy="37.5" r="37.5"/><path class="cls-2" d="M15,35c0-4.75,0-9.5,0-14.24,0-3.76,1.87-5.78,5.61-5.85q9.12-.15,18.24,0a5.05,5.05,0,0,1,3.09,1.25c3,2.77,5.84,5.69,8.69,8.61a3.43,3.43,0,0,1,1.06,1.91c.16,2.73.21,5.48.16,8.22,0,1.44-1.25,1.28-2.25,1.3s-1.55-.41-1.54-1.48c0-1.83-.06-3.66,0-5.49a3.61,3.61,0,0,0-1.19-2.88c-2.16-2.08-4.2-4.28-6.42-6.29a4.74,4.74,0,0,0-2.81-1.22c-5.49-.12-11-.08-16.48,0-2,0-2.51.47-2.52,2.55q-.06,13.73,0,27.47c0,2.11.4,2.48,2.5,2.5,4.25,0,8.49,0,12.74,0a2.86,2.86,0,0,1,2.64,3.27c-.08.29-.9.56-1.39.57-3.58,0-7.16,0-10.74,0H21.14C16.72,55.17,15,53.44,15,49,15,44.28,15,39.62,15,35Z"/><path class="cls-2" d="M49.36,39.15h.5c3.25,0,3.25,0,3.28,3.37,0,.5,0,1,0,1.49,0,1.28.55,1.81,1.81,1.76,1.08,0,2.16,0,3.24,0A1.62,1.62,0,0,1,60,47.64c0,.25,0,.5,0,.75,0,5.29.31,5-4.53,4.93-2.09,0-2.37.22-2.33,2.28.1,5,.13,4.6-4.89,4.58-2.43,0-2.64-.27-2.69-2.77v-.25c0-4.21.31-3.84-3.95-3.87-2.52,0-2.61-.13-2.65-2.72-.08-4.58-.08-4.64,4.56-4.77,1.49,0,2.19-.53,2-2a6.26,6.26,0,0,1,0-.75C45.59,39.34,45.09,39.1,49.36,39.15Z"/><path class="cls-2" d="M30.45,41.79c-1.9,0-3.81.07-5.71,0s-2.62-1.06-2-3a8.81,8.81,0,0,1,7.92-5.45,9,9,0,0,1,7.92,5.85c.48,1.64-.08,2.47-1.94,2.56-2.07.09-4.14,0-6.22,0Z"/><path class="cls-2" d="M30.72,21.76a4.54,4.54,0,0,1,4.58,4.6,4.93,4.93,0,0,1-4.78,4.78,4.69,4.69,0,0,1-4.5-5A4.45,4.45,0,0,1,30.72,21.76Z"/></g></g></svg>