<svg xmlns="http://www.w3.org/2000/svg" xmlns:xlink="http://www.w3.org/1999/xlink" viewBox="0 0 963.75 175.58"><defs><style>.cls-1{fill:none;}.cls-2{clip-path:url(#clip-path);}.cls-3{fill:#20345a;}</style><clipPath id="clip-path" transform="translate(22.94 -1.51)"><rect class="cls-1" width="1074" height="156.3"/></clipPath></defs><g id="Layer_2" data-name="Layer 2"><g id="graphics"><g class="cls-2"><path class="cls-3" d="M850.92,71.83l0,0v0l.07-.09S851,71.67,850.92,71.83Z" transform="translate(22.94 -1.51)"/><path class="cls-3" d="M850.43,72.27s0,0,0,0Z" transform="translate(22.94 -1.51)"/><path class="cls-3" d="M848.5,72.41l.13.07h0C848.54,72.41,848.49,72.4,848.5,72.41Z" transform="translate(22.94 -1.51)"/><path class="cls-3" d="M847.72,71.35v0a.63.63,0,0,0,0-.17A.76.76,0,0,0,847.72,71.35Z" transform="translate(22.94 -1.51)"/><path class="cls-3" d="M940.46,88.44a5.65,5.65,0,0,0-3.53-2.77,5.91,5.91,0,0,0-5.76-.72,5.53,5.53,0,0,0-2.28,1.74,4.75,4.75,0,0,0-1.75,1.54l-.07,0h0l-.06,0c-10.27,4.27-18.72,11.39-27.35,18.25q-3.63-10.5-7.42-21c-.86-2.35-1.73-4.69-2.6-7,.26-.65.52-1.31.79-2l5.72-14.21c1.27-3.15,2.74-6.31,3.75-9.59a1.71,1.71,0,0,0,.45-1.59,22.92,22.92,0,0,0,.58-3c.28-2.18-3.13-2.16-3.4,0A14.43,14.43,0,0,1,897.2,50l-.08,0a7.17,7.17,0,0,0-3.45-2s-.08-.07-.11-.11a1.39,1.39,0,0,0-.92-.46c.1-.16.21-.3.31-.46a9.58,9.58,0,0,0,1.14-8c-2.09-5.89-9.58-5.52-14-2.72a11.75,11.75,0,0,0-1.27.92l-.27-6c1.75-1.12,3.54-2.18,5.34-3.22,6.66-3.59,13.13-7.54,19.62-11.43a1.06,1.06,0,0,0,.49-1.22l.06,0c1.91-1.09.2-4-1.72-3L899,14.15a1.61,1.61,0,0,0-.87.22q-10,5.64-19.84,11.51a1.66,1.66,0,0,0-.06-.21q3.57-2.19,7.11-4.41l.55-.3q3.18-1.82,6.17-3.9c1.68-1,3.35-2.09,5-3.12s.26-3.93-1.55-3a1.72,1.72,0,0,0-1.4.38c-1.06.87-2.15,1.68-3.26,2.47a4.81,4.81,0,0,0-.19-3.84,1.7,1.7,0,0,0-1.7-.82,1.67,1.67,0,0,0-1.41,1.23l-.51,2.85a1.45,1.45,0,0,0-1.22.19l-1.81,1.25a1.74,1.74,0,0,0-.7,2.14,1.65,1.65,0,0,0,.7.82l.4.17h.07l-1.3.81c-6.42,3.59-13.23,6.53-19.85,9.78a1.2,1.2,0,0,0-.82-2q-77.61-3.6-155.24-6.62-77.23-3-154.5-5.41Q509.22,13,465.64,11.81a1.14,1.14,0,0,0,0,2.28Q543.31,16.18,621,18.86q77.25,2.67,154.48,5.93,43.58,1.84,87.12,3.86a.82.82,0,0,0,.28,0c-2,1-4,2-6,3.09a3.27,3.27,0,0,0-.24-.5,1.71,1.71,0,0,0-3.11.41c-.07.23-.16.46-.25.69a9.88,9.88,0,0,1-1,1.72,10.22,10.22,0,0,1-.9,1A71,71,0,0,0,845,39.72c-9.87-.11-19.75-.55-29.62-1.07-1.5-.51-3-1-4.56-1.38a1.1,1.1,0,0,0-1.39,1.06c-5.2-.28-10.39-.57-15.58-.82l-77.5-3.77c-51.86-2.52-103.74-5.08-155.5-9.42-14.37-1.21-28.72-2.71-43.09-4s-29-2-43.49-.47c-1.44.16-1.45,2.44,0,2.29,25.66-2.77,51.58,1.37,77.13,3.63,25.73,2.27,51.5,4.07,77.29,5.62,51.86,3.12,103.78,5.4,155.67,7.92l30.26,1.47a69.28,69.28,0,0,1,31.81,22.4,1.1,1.1,0,0,0,0,.18,1.07,1.07,0,0,0,1,1.08c.59.78,1.18,1.58,1.74,2.4a2.89,2.89,0,0,0-.29,0,4.49,4.49,0,0,0-2.54.69A4.23,4.23,0,0,0,844.46,70a5,5,0,0,0,.31,3.24,5,5,0,0,0,4.85,2.8,5.18,5.18,0,0,0,.79-.11A71.58,71.58,0,0,1,872,95.79a1.73,1.73,0,0,0,.48.46c0,.46,0,.91,0,1.36a63.61,63.61,0,0,1-5.6,3.48,1,1,0,0,0-.49.63l-85.44-4.83-88.27-5-87.82-5L517,82l-44.13-2.5c-11.9-.67-24.72-2.12-36.13,2.25a33.41,33.41,0,0,0-7.28,3.86,1.16,1.16,0,0,0,0,2A31.66,31.66,0,0,0,460.05,92c1.34-.52.76-2.73-.61-2.2a29.61,29.61,0,0,1-27.37-3.15c9.88-6.13,22.05-5.89,33.3-5.29,14.45.77,28.9,1.64,43.36,2.45l87.38,5L770.88,98.6,866.81,104a11.24,11.24,0,0,0-.95,2.85c0,.08,0,.17-.05.26-52.55,3.85-105.32,3.38-158,3q-83.49-.64-167-2.75-46.85-1.19-93.68-2.83c-1.46,0-1.46,2.23,0,2.29q83.45,2.93,166.94,4.39c55.59,1,111.22,1.79,166.81,1.32,28.2-.24,56.4-1,84.53-3.09a26.34,26.34,0,0,0-.14,5.81,12.37,12.37,0,0,0,3.14,7.12c1.7,1.93,4.29,3.81,4.21,6.66a1.49,1.49,0,0,0,.77,1.43l.83,27.81A1.75,1.75,0,0,0,876,160l5.39.59c1.21.14,1.79-1.19,1.64-2.16-.88-5.76-1.74-11.53-2.18-17.34l.1-.1,8.38-13.83a92.75,92.75,0,0,1,8.63-12.4c.51-.59,1-1.16,1.55-1.73q5.16,15.13,9.95,30.4,3.57,11.37,6.94,22.8a1.14,1.14,0,0,0,2.19-.61q-8.09-27.4-17.33-54.46a183.34,183.34,0,0,1,18-15.65.91.91,0,0,0,.39-.81,38.29,38.29,0,0,0,9.62-1.74c.38,1.27,2,1.65,3.56,1.67a5,5,0,0,0,4.78-1.11c.11-.11.2-.24.31-.37a6.23,6.23,0,0,0,2-1.07A2.94,2.94,0,0,0,940.46,88.44Zm-69.73-54c0,1.54,0,3.09,0,4.64-2.79.19-5.57.34-8.36.45Q866.56,36.94,870.73,34.41Zm-12.77,3a35.33,35.33,0,0,0-3.35,2.29h-1.1C855,39,856.49,38.21,858,37.42ZM847.21,60.61a71.59,71.59,0,0,0-25.57-19.47l6,.28q7.73.33,15.47.49a1.9,1.9,0,0,0,2.63,1.58c1.07-.48,2.11-1,3.17-1.51h3.18c-1.21,1.38.44,3.69,2.11,2.64,1.45-.92,2.91-1.82,4.37-2.72q6.13-.15,12.25-.56c.1,3.66.21,7.33.32,11,0,1.56.09,3.11.14,4.67-.85.37-1.7.72-2.56,1.07-2.9-3.18-8.14-3.88-12.14-3.14A16,16,0,0,0,850,57.79,11.16,11.16,0,0,0,847.21,60.61ZM851.35,71a1.42,1.42,0,0,1-.05.16l-.06.15.11-.26a1.5,1.5,0,0,1-.32.61l-.07.1h0l-.08.11,0-.08-.26.28a1.33,1.33,0,0,1-.19.14,1.53,1.53,0,0,0-1,.36h-.09l-.36,0-.23,0-.19-.06.06,0-.08,0h0c-.07,0-.11-.06-.11-.07l-.17-.08-.14-.1-.11-.1L848,72c0-.06-.07-.11-.08-.13l-.06-.12-.09-.35v0a.14.14,0,0,1,0-.07c0-.09,0-.14,0-.08v0a.92.92,0,0,1,0-.16c0-.09,0-.19.07-.28l.06-.11,0,0,.06-.07a.46.46,0,0,0,.07-.07l.16-.1h0l.23-.07.1,0h.34l.13,0,.11,0,.1.05.1,0a1.72,1.72,0,0,0,1.09.42l.17,0a1.45,1.45,0,0,0,.3.06l.51,0A.53.53,0,0,1,851.35,71Zm.31-4.43c-.92-1.38-1.88-2.73-2.9-4,.46-1.49,2.09-2.62,3.29-3.4a14.22,14.22,0,0,1,5.12-2c2.83-.52,6.88-.16,9.27,1.87-1.32.53-2.65,1-4,1.51a1.64,1.64,0,0,0-1.11,1.29c-.69.29-1.38.58-2.05.89-2.4,1.13-4.74,2.36-7,3.68Zm2,7.29c.14-.18.27-.38.4-.58a6,6,0,0,0,.78-2.16l1,.07a32.64,32.64,0,0,0,3.95.18,6.17,6.17,0,0,0,4.87-2.2q3.47-1.52,6.89-3.15l.36,12.12.36,12.42A75.68,75.68,0,0,0,853.63,73.89Zm18.52,28.79a1.58,1.58,0,0,0,.45-.58l.14,4.5-3.33.26A8.47,8.47,0,0,1,872.15,102.68ZM869,116.57a20,20,0,0,1-.07-7.32.22.22,0,0,0,0-.08l3.88-.29.4,13.57C871.58,120.61,869.65,119.06,869,116.57ZM897.77,108c-2.84,2.23-5.71,4.41-8.69,6.43a74.19,74.19,0,0,1-7.85,4.68c.26-3.86.49-7.72.5-11.6s-.1-7.63-.25-11.44c1-1.93,2.06-3.83,3-5.76,1.44-2.82,2.68-5.73,3.86-8.67Q893.21,94.81,897.77,108ZM883.56,68.77c1,2.72,2.06,5.45,3.07,8.18-1.68,4.2-3.35,8.4-5.44,12.42-.12-2.56-.25-5.11-.36-7.67l-.3-6.57Zm-1.43-8.18c1.67-.92,3.34-1.85,5-2.81a53.83,53.83,0,0,0-3.75,4.9,1.26,1.26,0,0,0-.83-.14C882.42,61.89,882.29,61.24,882.13,60.59Zm13.52-6.06c-.12.29-.23.58-.35.88q-1.37,3.42-2.75,6.84l-4.66,11.58c-1-2.62-2-5.23-3-7.84a26.2,26.2,0,0,1,2.84-4.3,10.24,10.24,0,0,0,1.57-2.4,7.15,7.15,0,0,0,.35-.95c.35-.39.68-.79,1-1.16a1.06,1.06,0,0,0,.14-1.35s0-.1,0-.15l.14,0A27,27,0,0,0,895.65,54.53Zm-18,102.21v0a1.78,1.78,0,0,0,1.57-.9c0,.37.11.75.16,1.12ZM879,40.1a10.84,10.84,0,0,1,7.46-3.62c2.11-.06,4.33.67,5.32,2.68a6.93,6.93,0,0,1-.47,6.17,13,13,0,0,1-2.22,2.85c-2.55.73-4.86,2.29-7.16,3.57-.77.43-1.57.83-2.35,1.24Q879.26,46.54,879,40.1Zm1,21.69.15-.08a34.41,34.41,0,0,1,.61,3.56,1.28,1.28,0,0,0,.5.91c-.34.58-.67,1.17-1,1.77Q880.08,64.86,879.93,61.79ZM896,113.5a97.77,97.77,0,0,0-8.52,12.25l-6.88,11.36c-.05-1.35-.09-2.7-.07-4.05,0-3.77.27-7.53.52-11.28a98.39,98.39,0,0,0,17.49-11.51l.11.3C897.74,111.53,896.86,112.5,896,113.5Z" transform="translate(22.94 -1.51)"/><path class="cls-3" d="M884.37,12.3A1.09,1.09,0,0,0,883.3,11a1.06,1.06,0,0,0-1.09,1.07q-79.26,1.08-158.53.7-79.6-.37-159.18-2.22-44.32-1-88.64-2.51l.52-.37,5.89.19c3.65.13,3.64-5.57,0-5.71Q446.2.82,410.11,2.27q-10.14.42-20.27,1a2.87,2.87,0,0,0-2.72,2.93A12.74,12.74,0,0,1,385,6.13c-3-.48-5.09-3.48-8.12-3.64-1.37-.07-1.91.91-2.53,2a41.22,41.22,0,0,1-3,4.32c-2,2.48-4.24,5.21-7.53,5.68a1,1,0,0,0-.69,1.46c-6.3,2-12.62,4-19,5.8q-23.54,6.89-47.45,12.37Q276.45,38.74,256,42.36c-7.85-.22-15.69-.72-23.56-.77q-12.94-.09-25.89.83a340.59,340.59,0,0,0-51.13,7.52c-2.13.48-4.25,1-6.37,1.51-.71.17-.41,1.27.3,1.1A339.2,339.2,0,0,1,200.74,44q12.91-1.14,25.88-1.28c8-.08,16,.23,24,.57q-25,4.29-50.32,7.07c-18.44,2-37,3.31-55.56,2.45.53-2.27.1-4.87-2.74-5-2.19-.1-4.43.14-6.62.21l-6.49.2-16.52.52a.94.94,0,0,0-1.06-1.14l-5.45.6.14-1.93a1.72,1.72,0,0,0-1.71-1.71,1.75,1.75,0,0,0-1.7,1.71c0,.77-.11,1.53-.16,2.3-4.28.45-8.55.89-12.83,1.29l-5.28.47c-1.68-.07-3.35-.11-5-.1a1.72,1.72,0,0,0,.37-2.15,2.15,2.15,0,0,0-.75-.7.94.94,0,0,0-.65-.86,1.13,1.13,0,0,0-.53-.7,2.77,2.77,0,0,0-3.21.38,1.59,1.59,0,0,0-.13.13,2.58,2.58,0,0,0-1.11,1.91c-.08.74-.12,1.48-.14,2.23-1,.07-1.91.16-2.87.28a1.77,1.77,0,0,0-1.12.58c-.41-.05-.83-.1-1.24-.19a1.21,1.21,0,0,0-.54,0,1.59,1.59,0,0,0-2.13,1.51,2.28,2.28,0,0,0,.21,1.39A163.43,163.43,0,0,1,24.52,81.32c-4.09,1.1-8.21,2.08-12.36,2.91a187.55,187.55,0,0,1-20,2.88c-.72.06-.73,1.21,0,1.14A190.48,190.48,0,0,0,18.36,84,158.88,158.88,0,0,1,.22,90.36c-7.43,2.09-15.14,3.25-22.39,5.94-1.36.51-.77,2.72.6,2.21C-15,96.06-8,94.94-1.25,93.13A163.37,163.37,0,0,0,17.08,87q7.25-2.91,14.2-6.48a191.63,191.63,0,0,0,29.77-12c5.09-2.57,10-5.39,14.89-8.42a1.53,1.53,0,0,0,.37.08l8.09,1a41.57,41.57,0,0,0,7.47.57c.35,0,.7-.06,1-.09,1.46,1.59,2.92,3.19,4.34,4.82a29.93,29.93,0,0,1,3.44,4.8c-1,.62-1.93,1.19-2.93,1.71-3.33,1.74-6.82,3.18-10.26,4.69C80,81,72.37,84.16,64.69,87.15a293,293,0,0,1-46.53,14.27A188,188,0,0,1-9,105.09c-.73,0-.73,1.18,0,1.14a210.56,210.56,0,0,0,48.52-9.12A428.41,428.41,0,0,0,85.9,79.59c4-1.75,8.12-3.42,12-5.42a34.91,34.91,0,0,0,3.3-1.91,27.37,27.37,0,0,1,1.82,4.33l-.33,15.35a.57.57,0,0,1-.13.08c.07-.44-.36-.94-.8-.6a345.68,345.68,0,0,1-35.41,24q-22.83,8-45.93,15.15Q6.77,134.84-7,138.81a.58.58,0,0,0,.3,1.11q24.6-7.12,48.94-15.11,9.56-3.14,19-6.41c-12.55,7.16-25.55,13.76-39.24,18.36A111.18,111.18,0,0,1-2.9,142.25c-.72.06-.72,1.21,0,1.14,15.15-1.43,29.65-6.46,43.38-12.87A298.59,298.59,0,0,0,67,116.44c6.81-2.37,13.67-4.68,20.22-7.71a57.78,57.78,0,0,0,15.39-10q-.39,17.72-.76,35.42c0,.21,0,.43,0,.64a83,83,0,0,0-.28,16.07q-.09,4-.16,8.05a1.72,1.72,0,0,0,2.9,1.21,1.52,1.52,0,0,1,2-.07,1.71,1.71,0,0,0,2.56-1.48q-.14-27.13-.23-54.29c0-3,0-6.09,0-9.14a505.19,505.19,0,0,0,60.65,5.71q20.1.67,40.2-.29,9.5,1.13,19,2.21c22,2.5,44,4.76,66.13,6a564.3,564.3,0,0,0,66.06.1c22.31-1.34,44.67-3.69,67-2.22q3.13.21,6.27.53c.28.67.53,1.35.75,2q.07,10.1,0,20.2c-1.85.65-3.71,1.27-5.59,1.84a2.31,2.31,0,0,0-1,3.82,16.73,16.73,0,0,0,6.51,3.74c0,1.56,0,3.13,0,4.69l-4.28,1.26c-2.8.82-1.61,5.23,1.21,4.4l3-.89q-.11,8-.23,16a3.45,3.45,0,0,0,4.31,3.3l3.36-1a3.49,3.49,0,0,0,2.5-3.3c.05-6,.17-12,.28-18.08a12.05,12.05,0,0,0,5.17-2.94,2.31,2.31,0,0,0-.46-3.58,26.39,26.39,0,0,0-4.56-1.77q.06-3.34.11-6.69l1.16-.5c2-.87,4.43-2.51,3.73-5.09a4,4,0,0,0-2.66-2.5l-2.16-.85c0-7.21-.1-14.42-.41-21.61.89-2.26,1.85-4.5,2.8-6.74a2.31,2.31,0,0,0,1.11,1.52,5.41,5.41,0,0,0,2.4.58c0,.17,0,.33,0,.49-.19,5,1.53,9.87,3.11,14.52a279.26,279.26,0,0,1,8.38,31c2.25,10.46,4.07,21,5.85,31.56l.66,3.91c.12.72,1.21.41,1.09-.31-1.8-10.73-3.6-21.47-5.8-32.13a295.33,295.33,0,0,0-8.1-31.41c-1.59-4.88-3.63-9.78-4-15a18.57,18.57,0,0,1,0-2.69,20.11,20.11,0,0,0,3-.16,21,21,0,0,0,5.63-1.58c.9,2.91,1.81,5.82,2.71,8.73L473.64,135q5.12,16.42,10.22,32.86l1.26,4.07a.57.57,0,0,0,1.1-.31L475.12,136,464,100.25q-1.14-3.65-2.26-7.28a18.88,18.88,0,0,0,5-3.61,16.62,16.62,0,0,0,.45-22.83,14.67,14.67,0,0,0-1.52-1.32c1.26-2,2.49-4,3.62-6a64.43,64.43,0,0,0,6.57-15.93c1.23-5.13,1.45-10.6-.36-15.56q5.24.42,10.46.89A2.28,2.28,0,0,0,486,24q-4.44-.41-8.9-.76a3,3,0,0,0,0-1q-1-6-2-11.95,79.8,2.69,159.64,3.88,79.59,1.2,159.19.94,44.91-.15,89.8-.77A1.16,1.16,0,0,0,884.37,12.3ZM46.26,74q-4.6,1.86-9.31,3.48a161,161,0,0,0,13.71-8.63A166.54,166.54,0,0,0,67.28,55.51s0-.07.07-.1A5.93,5.93,0,0,0,69.8,55,12.8,12.8,0,0,1,73,54.44L72.9,56a1.12,1.12,0,0,0,.77,1.07c0,.32,0,.63,0,1a1.12,1.12,0,0,0,.55.91,1.61,1.61,0,0,0,.64.46A189.13,189.13,0,0,1,46.26,74Zm56.36,23.17c-8.38,8.3-19.88,12.55-30.91,16.4q4.65-2.86,9.2-5.85,9.75-6.42,19-13.49a.57.57,0,0,0,1,.44,10.63,10.63,0,0,1,1.78-1.4C102.67,94.58,102.65,95.88,102.62,97.18ZM84.4,57.74,79,57.1l0-3.46c1.32,0,2.64,0,4,0a.88.88,0,0,0,.79.78c2.62.43,4.35,2,6.05,3.85C88,58.24,86.21,58,84.4,57.74Zm4-3.79a57,57,0,0,0,8.57.1,34,34,0,0,1,3.84-.46,1.94,1.94,0,0,0,1.49.53,5.58,5.58,0,0,0,.76,2.11l-1.52.11a1.14,1.14,0,0,0-1.08,1.17l-1,0-.88-.16a1.67,1.67,0,0,0-1.45.36l-3.6.41A52.4,52.4,0,0,0,88.43,54ZM103.22,69a40.7,40.7,0,0,0-4.69-5.94c-.59-.63-1.2-1.26-1.81-1.89.84-.1,1.68-.19,2.52-.24,1.38.27,2.75.51,4.13.73ZM432.91,7.35c0,.36-.05.72-.08,1.08A6.65,6.65,0,0,1,431.12,8c-.61-.26-1.19.29-1.4.79a4,4,0,0,0-.28,1.87c.12,1.46,2.39,1.47,2.27,0v-.08a7.55,7.55,0,0,0,1,.17c0,.17,0,.34,0,.51a4,4,0,0,0-1.55,1.28,45.38,45.38,0,0,0-3.22,5.61,51.37,51.37,0,0,0-10.8-10.38C422.34,7.58,427.63,7.43,432.91,7.35Zm-1.48,17.54.59,0c0,3,0,5.92,0,8.88a16.29,16.29,0,0,1-6.34-2.94,39.59,39.59,0,0,1-6.51-6.43C423.27,24.57,427.35,24.71,431.43,24.89Zm-2.13-4.64c.74-1.32,1.47-2.64,2.21-3.95.12-.23.46-1,.87-1.66-.1,1.91-.2,3.81-.26,5.72ZM432.05,35c.12,7,.43,14.08.79,21.12-.45-.48-.92-.95-1.4-1.4-3.17-2.93-6.35-5.57-8.66-9.28a30.75,30.75,0,0,1-4.37-20.12C422.09,29.55,426.29,33.94,432.05,35ZM417.41,10.84a48.75,48.75,0,0,1,9.13,9.3c-3.34-.14-6.67-.26-10-.37A40.68,40.68,0,0,0,417.41,10.84Zm-45.9,1.27a43.52,43.52,0,0,0,3-3.78c.48-.68.94-1.38,1.39-2.09a5.49,5.49,0,0,1,.64-1.08c.4-.4,0-.37.67-.27,1.37.2,2.77,1.51,3.95,2.19A10,10,0,0,0,385,8.42q.56.06,1.11.09C380.7,10.16,375.33,12,370,13.72,370.5,13.21,371,12.67,371.51,12.11Zm-6.41,5.58c8.89-2.84,17.68-6,26.67-8.49a1,1,0,0,0,.5-.31q8.52-.51,17.05-.86c0,.33,0,.65,0,1,0,.55,0,1.09.05,1.64A367.68,367.68,0,0,0,360,20c-6.63,1.67-13.23,3.46-19.83,5.27Q352.69,21.66,365.1,17.69ZM326.78,28.94q-8.22,2.31-16.45,4.56c-8.29,2.26-16.6,4.52-25,6.31a120.14,120.14,0,0,1-15.48,2.28Q298.53,36.51,326.78,28.94ZM142.59,55.66a1.65,1.65,0,0,0,2.29-.54,340.65,340.65,0,0,0,49.57-1.84c16.26-1.63,32.48-3.8,48.61-6.4,6.35-1,12.68-2.15,19-3.32a109.43,109.43,0,0,0,16.63-1.32c8.51-1.4,16.88-3.62,25.22-5.83,16.5-4.37,32.88-9.22,49.4-13.55s33.31-8.18,50.31-10.41c1.93-.25,3.88-.48,5.82-.69,0,.66,0,1.33.06,2,.07,1.59.16,3.18.28,4.77,0,.34.06.69.11,1l-.71,0q-5.35-.13-10.71-.23c-1.51,0-2.88,0-4,1.18a2.57,2.57,0,0,0,.6,4,2.2,2.2,0,0,0,2.89-.66h.76l2,0c1.5,0,3,.06,4.5.09l2.31.06a398.41,398.41,0,0,1-46.6,12.43c-18,3.8-36,7.08-54.08,10.52-18.33,3.5-36.67,7.31-55.26,9-9.17.84-18.38,1.06-27.58,1.18q-14.09.2-28.18.11Q169,57.18,142.15,56A2.22,2.22,0,0,0,142.59,55.66Zm-34.53-1.35a1.62,1.62,0,0,0-.31-.94h.14c1.6,0,3.2.17,4.79.34,3.1.34,6.18.85,9.27,1.25-4.62.33-9.24.63-13.86.94C108.08,55.37,108.08,54.84,108.06,54.31Zm.21,12.78c0-1.58,0-3.16-.06-4.74,1.59.18,3.18.32,4.78.44-.08.81,0,1.66-.09,2.36a7.73,7.73,0,0,0-.15,2.19h-.24a5.67,5.67,0,0,0-1.09,0A30.37,30.37,0,0,1,108.27,67.09Zm.16,9.86c0-1.85-.07-3.71-.11-5.57v-.84a34.06,34.06,0,0,0,3.65.23c1.78,0,3.61-.21,4.08-2.26a21.08,21.08,0,0,0,.24-3.08l.1-1.68,0-.53h.08l.81.11,1.64.2c1.09.12,2.19.23,3.29.31q3.15.26,6.31.33a38.69,38.69,0,0,0,6.37-.07c1.81-.26,2-1.63,2-3.09a8.19,8.19,0,0,0,1.51-1.08,1.47,1.47,0,0,0,.38-1.76q25,1.11,50,1.4,14.24.15,28.47,0c9.33-.09,18.68-.16,28-.76,18.44-1.19,36.63-4.72,54.75-8.18s36.46-6.84,54.64-10.52c17.83-3.62,35.61-7.76,52.86-13.63,2.13-.72,4.26-1.48,6.37-2.26H414l2.3.08a33,33,0,0,0,3.47,20.35,33.37,33.37,0,0,0,7.44,9.27,42.59,42.59,0,0,1,5.32,5.18,1,1,0,0,0-1.17,0l-4,2.58a1.07,1.07,0,0,0-.85-.17c-29.53,5.89-59,11.92-88.58,17.76-14.1-.53-28.21-1-42.31-1.08-40.76-.12-80.59,9.72-121.2,11.56-21.91,1-44-1.88-65.82.39C108.51,85.75,108.49,81.35,108.43,77Zm69.26,21.88a500.15,500.15,0,0,1-69.12-5.93c0-.5,0-1,0-1.51a35.07,35.07,0,0,1,5-.14c5.27.18,10.53.62,15.79,1,11.1.83,22.2,1.87,33.27,3,10.53,1.1,21,2.31,31.56,3.54Q185.95,99,177.69,98.83Zm24.51-.21c-11.56-1.37-23.11-2.72-34.69-4-11.07-1.19-22.16-2.28-33.27-3.16q-6.86-.56-13.73-1c15.49-.44,31,.9,46.53.61,20.22-.38,40.29-3.12,60.3-5.85s40.34-5.5,60.7-5.89c15-.29,30,.27,44.94.86q-15.51,3-31,6c-20.46,3.89-41,7.4-61.71,9.66Q221.28,98,202.2,98.62Zm166,8.69a582.91,582.91,0,0,1-67.14.73c-22.32-1.07-44.58-3.22-66.79-5.7q-9.09-1-18.17-2.09,8-.48,16-1.22c20.83-1.94,41.51-5.22,62.08-9,16.1-3,32.15-6.18,48.19-9.41l8.35.3,70.35,2.33c.73,0,.72-1.12,0-1.14L358.29,80q-5.49-.18-11-.39l9.18-1.84,62.75-12.52,4.12-.82A4.77,4.77,0,0,0,422,67.87c-.11,5.29.26,10.62.39,15.91.07,2.6.07,5.22.22,7.83A9.09,9.09,0,0,0,424.26,97c1.23,1.51,3.12,2.1,4.65,3.23a14.17,14.17,0,0,1,3.79,4.46c.26.45.49.91.71,1.38C411.71,104,389.91,105.84,368.22,107.31Zm61.67-9.17c-1.52-1.08-3.58-1.64-4.4-3.47s-.65-4.33-.7-6.38q-.19-7.47-.38-14.94c0-1.41-.08-2.82-.11-4.23s-.12-2.6,1.12-3.5c2.24-1.65,4.72-3.05,7.06-4.55a1.11,1.11,0,0,0,.44-1.38l.12.15c.44,8.3.91,16.59,1.18,24.87.2,6.25.32,12.51.4,18.76A16.49,16.49,0,0,0,429.89,98.14Zm36.63-87.73.9,0c.54,0,1.08-.08,1.61-.14l.66,7.48a16.5,16.5,0,0,0,.76,5q-6.36-.48-12.73-.91c-.08-.24-.14-.5-.22-.74l8.73-9.87A1.12,1.12,0,0,0,466.52,10.41Zm-11.36-.24c2.88.1,5.79.27,8.69.28l-7.09,8a73.15,73.15,0,0,1-1.71-8.3ZM440.8,7.25c3,0,6,0,9,0-.56.13-1.12.26-1.69.35-.39.06-.78.11-1.17.14-1.33,0-2.66,0-4,.09-.7,0-1.4-.07-2.09-.12Zm9.28,14.09c-1.64-.1-3.29-.21-4.94-.3L447,18.68c.61-.76,1.21-1.55,1.77-2.37A45.83,45.83,0,0,0,450.08,21.34Zm-8.9-11.14c.35,0,.69-.07,1-.08l.95,0c1.1,0,2.19,0,3.29-.08H448c.05.93.13,1.85.24,2.77A26.61,26.61,0,0,1,444.71,18l-2.32,2.92h-.24Q441.82,15.52,441.18,10.2Zm1.2,15.25q6.67.36,13.35.78a50.75,50.75,0,0,1-13.15,6.2C442.54,30.1,442.48,27.78,442.38,25.45Zm11.69,47.7c.19,1.75.54,3.48.78,5.22-1.07,1.36-2.14,2.7-3.2,4.06.31-.94.61-1.88.88-2.83C453.13,77.47,453.63,75.32,454.07,73.15Zm-1.39-15.37-.28-.38c-2.38-3.85-2.86-8.48-4.15-12.75-1-3.41-2.73-7-5.64-9.15,0-.63,0-1.27,0-1.9a52.5,52.5,0,0,0,7.08-2.67c1.06-.49,2.1-1,3.12-1.6C453.08,38.8,453.33,48.31,452.68,57.78ZM455,80a18.6,18.6,0,0,1,.07,2.11c0,.12,0,.24,0,.36a10.35,10.35,0,0,0-2.54,1.23,11.57,11.57,0,0,0-1.07.81ZM444.35,91.87l-.1.23q-.27-4-.64-8c-1.5-15.67-.87-31.41-1-47.12a16.15,16.15,0,0,1,4.05,6.52c1.49,4.09,1.92,8.5,3.72,12.5a15.78,15.78,0,0,0,1.59,2.8c.17.24.37.45.56.68-.05.64-.09,1.29-.16,1.94a99.14,99.14,0,0,1-2.66,15.49A102.82,102.82,0,0,1,444.35,91.87ZM451.07,94c-1-.06-2.33-.16-2.53-1.3a6.64,6.64,0,0,1,.6-3.21,10.37,10.37,0,0,1,3.94-4.85,9.75,9.75,0,0,1,1.82-.93,9.64,9.64,0,0,1-.47,1.73A32.64,32.64,0,0,1,452.66,89,15.69,15.69,0,0,0,451.07,94Zm6.48-.64a19.27,19.27,0,0,1-5.34.67,13.28,13.28,0,0,1,1-3.6c1-2.26,2.46-4.22,2.86-6.72,0-.11,0-.22,0-.33h0c1.56-.21,1.85,1.15,2.22,2.35.69,2.21,1.38,4.41,2.06,6.62A19.48,19.48,0,0,1,457.55,93.38Zm10.13-6.89a17.29,17.29,0,0,1-6.27,5.37l-.18-.57c-.46-1.5-.93-3-1.39-4.48a11.71,11.71,0,0,0-1.37-3.66,2.51,2.51,0,0,0-2.28-.92,20.72,20.72,0,0,0-.18-3.52c1.21-1.53,2.4-3.07,3.56-4.64q2.87-3.87,5.5-7.9C471.08,70.88,472,80.32,467.68,86.49ZM468.63,58c-1.21,2.23-2.52,4.4-3.89,6.54-.47-.14-.85.49-.56.9-1.63,2.52-3.36,5-5.13,7.41-1.07,1.45-2.16,2.87-3.26,4.29a33.74,33.74,0,0,1-.73-7.28c.13-2.37,1.54-4.72,1.06-7.11a4,4,0,0,0-.37-1c.45-4.66.66-9.34.72-14,.08-6.16-.08-12.32-.26-18.48a1.59,1.59,0,0,0-.88-1.43c.62-.39,1.23-.8,1.83-1.22a1.25,1.25,0,0,0,1.8-.17c2.45.16,4.9.32,7.35.5,2.65.19,5.31.41,8,.62C478.32,37.53,473.41,49.2,468.63,58Z" transform="translate(22.94 -1.51)"/><path class="cls-3" d="M672.49,53.81a3.11,3.11,0,0,0-1.31-1.73,28.75,28.75,0,0,0-2.59-2.51,16.22,16.22,0,0,1-1.26-1.37c-.39-.72-.68-1.5-1-2.25v-.46a.45.45,0,0,0,.5-.52c-.1-.8-.24-1.6-.4-2.39s-.07-1.72-.12-2.58a24.18,24.18,0,0,0-1-6.61c-.23-.63-.72-1.87-1.56-1.85-.54,0-1,.53-1.29,1.06-.1-.17-.2-.35-.31-.52a5.64,5.64,0,0,0-1.92-2.21,1.19,1.19,0,0,0-1-.07c-.42.25-.48,1-.57,1.43a32.16,32.16,0,0,0-.26,7.47c.09,2.78.23,5.56.39,8.33v.06a3.44,3.44,0,0,0,0,.73v.09a.57.57,0,0,0,0,.14,1.7,1.7,0,0,0,0,.22.92.92,0,0,0-.56.1.71.71,0,0,0-.25,0,4.75,4.75,0,0,0-3.4,3,11,11,0,0,1-.91,2.25A6.93,6.93,0,0,1,652.27,55c-1.09.85-2.61,2.33-1.81,3.87s2.89,1.07,4.1.57a12.94,12.94,0,0,0,4.24-3.3,1,1,0,0,0,.19-.3,3.63,3.63,0,0,0,.48-.94,2.8,2.8,0,0,0,.27-.75,3.78,3.78,0,0,0,0-1.3,24.39,24.39,0,0,0-.2-3,11.55,11.55,0,0,0,1.65,1.94,53.76,53.76,0,0,0,4.69,4.1,4.32,4.32,0,0,0,3,1.05,4.57,4.57,0,0,0,.82-.05,2.67,2.67,0,0,0,1.14-.32l.08,0A2.62,2.62,0,0,0,672.49,53.81Zm-8.91-20.93c.17-.08.19-.16.06-.25a2.31,2.31,0,0,1,.32.45,4.43,4.43,0,0,1,.38.93,14.41,14.41,0,0,1,.43,1.72c.13.71.22,1.43.28,2.16a30.12,30.12,0,0,0-1.94-4.15C663.25,33.45,663.41,33.17,663.58,32.88Zm-4.13-.17a8.26,8.26,0,0,1,.33-1.87c.39.16.78.86,1,1.11.37.55.73,1.1,1.06,1.67a1.62,1.62,0,0,1,.1.18,39.52,39.52,0,0,0-1.58,6c-.26,1.17-.49,2.35-.71,3.53-.07-1.44-.13-2.87-.18-4.31s-.1-2.77-.08-4.16A18.47,18.47,0,0,1,659.45,32.71ZM662,42.62a.8.8,0,0,0-.44.18,3,3,0,0,0-.83.19c.19-1,.38-2,.6-3q.42-1.93.93-3.84c.1-.37.21-.73.32-1.1.36.67.69,1.36,1,2.06a28.09,28.09,0,0,1,1.73,5.45c0,.32,0,.63,0,.94s0,.46,0,.7A3.88,3.88,0,0,0,662,42.62Z" transform="translate(22.94 -1.51)"/></g></g></g></svg>