<svg xmlns="http://www.w3.org/2000/svg" viewBox="0 0 547.71 85.08"><defs><style>.cls-1{font-size:59.15px;fill:#e46c27;font-family:WorkSans-Bold, Work Sans;font-weight:700;}.cls-2{letter-spacing:-0.09em;}.cls-3{letter-spacing:-0.01em;}.cls-4{letter-spacing:-0.01em;}.cls-5{letter-spacing:0.01em;}.cls-6{letter-spacing:0em;}.cls-7{letter-spacing:-0.05em;}.cls-8{letter-spacing:0em;}.cls-9{letter-spacing:0em;}.cls-10{font-size:12.85px;fill:#212121;font-family:Helvetica;}.cls-11{letter-spacing:-0.01em;}.cls-12{letter-spacing:-0.05em;}.cls-13{letter-spacing:-0.07em;}.cls-14{letter-spacing:-0.01em;}.cls-15{letter-spacing:-0.02em;}.cls-16{letter-spacing:-0.01em;}.cls-17{letter-spacing:-0.01em;}.cls-18{letter-spacing:-0.01em;}.cls-19{letter-spacing:-0.01em;}.cls-20{letter-spacing:0em;}.cls-21{letter-spacing:-0.01em;}.cls-22{letter-spacing:-0.01em;}.cls-23{letter-spacing:-0.02em;}.cls-24{letter-spacing:-0.02em;}.cls-25{letter-spacing:0em;}.cls-26{letter-spacing:0em;}.cls-27{letter-spacing:-0.01em;}.cls-28{letter-spacing:-0.03em;}.cls-29{letter-spacing:-0.02em;}.cls-30{letter-spacing:0em;}.cls-31{letter-spacing:0em;}.cls-32{letter-spacing:-0.01em;}.cls-33{letter-spacing:-0.01em;}.cls-34{letter-spacing:-0.03em;}.cls-35{letter-spacing:-0.01em;}.cls-36{letter-spacing:-0.03em;}.cls-37{letter-spacing:-0.02em;}.cls-38{letter-spacing:-0.02em;}.cls-39{letter-spacing:-0.02em;}.cls-40{letter-spacing:-0.02em;}.cls-41{letter-spacing:-0.01em;}.cls-42{letter-spacing:-0.02em;}.cls-43{letter-spacing:-0.09em;}.cls-44{letter-spacing:-0.02em;}.cls-45{letter-spacing:-0.01em;}.cls-46{letter-spacing:0em;}.cls-47{letter-spacing:-0.01em;}.cls-48{letter-spacing:-0.02em;}.cls-49{letter-spacing:-0.01em;}.cls-50{letter-spacing:0.02em;}.cls-51{letter-spacing:-0.01em;}.cls-52{letter-spacing:-0.01em;}.cls-53{letter-spacing:-0.01em;}.cls-54{letter-spacing:-0.01em;}.cls-55{letter-spacing:-0.03em;}</style></defs><g id="Layer_2" data-name="Layer 2"><g id="Text"><text class="cls-1" transform="translate(0 49.09)">#<tspan class="cls-2" x="40.75" y="0">T</tspan><tspan class="cls-3" x="73.94" y="0">o</tspan><tspan x="109.13" y="0">g</tspan><tspan class="cls-4" x="142.61" y="0">e</tspan><tspan class="cls-5" x="176.68" y="0">t</tspan><tspan x="203.12" y="0">he</tspan><tspan class="cls-6" x="274.21" y="0">r</tspan><tspan class="cls-7" x="299.47" y="0">W</tspan><tspan class="cls-8" x="355.3" y="0">e</tspan><tspan class="cls-9" x="389.61" y="0">Rai</tspan><tspan class="cls-6" x="481.94" y="0">s</tspan><tspan x="513.29" y="0">e</tspan></text><text class="cls-10" transform="translate(22.89 78.9)"><tspan class="cls-11">A</tspan><tspan class="cls-12" x="8.47" y="0">D</tspan><tspan class="cls-13" x="17.16" y="0">V</tspan><tspan class="cls-14" x="24.8" y="0">AN</tspan><tspan class="cls-15" x="42.51" y="0">C</tspan><tspan class="cls-16" x="51.5" y="0">I</tspan><tspan class="cls-17" x="54.99" y="0">N</tspan><tspan x="64.17" y="0">G </tspan><tspan class="cls-18" x="77.73" y="0">T</tspan><tspan class="cls-19" x="85.49" y="0">H</tspan><tspan class="cls-20" x="94.65" y="0">E </tspan><tspan class="cls-21" x="106.79" y="0">M</tspan><tspan class="cls-22" x="117.34" y="0">I</tspan><tspan class="cls-23" x="120.78" y="0">S</tspan><tspan class="cls-24" x="129.14" y="0">S</tspan><tspan class="cls-25" x="137.43" y="0">I</tspan><tspan class="cls-26" x="140.97" y="0">O</tspan><tspan x="150.94" y="0">N – </tspan><tspan class="cls-27" x="174.51" y="0">R</tspan><tspan class="cls-28" x="183.6" y="0">E</tspan><tspan class="cls-29" x="191.76" y="0">G</tspan><tspan class="cls-30" x="201.48" y="0">I</tspan><tspan class="cls-31" x="205.02" y="0">O</tspan><tspan class="cls-32" x="215" y="0">N</tspan><tspan class="cls-33" x="224.16" y="0">A</tspan><tspan x="232.66" y="0">L </tspan><tspan class="cls-34" x="243.38" y="0">P</tspan><tspan class="cls-35" x="251.58" y="0">R</tspan><tspan class="cls-36" x="260.67" y="0">E</tspan><tspan class="cls-37" x="268.89" y="0">S</tspan><tspan class="cls-38" x="277.25" y="0">E</tspan><tspan class="cls-33" x="285.54" y="0">N</tspan><tspan class="cls-39" x="294.75" y="0">C</tspan><tspan x="303.82" y="0">E &amp; </tspan><tspan class="cls-40" x="328.1" y="0">S</tspan><tspan class="cls-41" x="336.39" y="0">U</tspan><tspan class="cls-42" x="345.49" y="0">S</tspan><tspan class="cls-43" x="353.78" y="0">T</tspan><tspan class="cls-44" x="360.44" y="0">A</tspan><tspan class="cls-45" x="368.8" y="0">I</tspan><tspan class="cls-32" x="372.29" y="0">N</tspan><tspan class="cls-46" x="381.46" y="0">A</tspan><tspan class="cls-47" x="389.98" y="0">B</tspan><tspan class="cls-45" x="398.4" y="0">I</tspan><tspan class="cls-48" x="401.89" y="0">L</tspan><tspan class="cls-49" x="408.76" y="0">I</tspan><tspan class="cls-50" x="412.2" y="0">T</tspan><tspan class="cls-20" x="420.33" y="0">Y </tspan><tspan class="cls-51" x="432.47" y="0">S</tspan><tspan class="cls-52" x="440.88" y="0">N</tspan><tspan class="cls-53" x="450.05" y="0">A</tspan><tspan class="cls-48" x="458.49" y="0">P</tspan><tspan class="cls-54" x="466.79" y="0">S</tspan><tspan class="cls-30" x="475.18" y="0">H</tspan><tspan class="cls-55" x="484.43" y="0">O</tspan><tspan x="494.08" y="0">T</tspan></text></g></g></svg>