<svg xmlns="http://www.w3.org/2000/svg" viewBox="0 0 75.36 75.36"><defs><style>.cls-1{fill:#ad5322;stroke:#6d6e71;stroke-miterlimit:10;stroke-width:0.36px;}.cls-2{fill:#fff;}</style></defs><g id="Layer_2" data-name="Layer 2"><g id="graphics"><circle class="cls-1" cx="37.68" cy="37.68" r="37.5"/><path class="cls-2" d="M31,37.41c.72-2.45,1.46-4.89,2.14-7.34a2.84,2.84,0,0,1,2.21-2.4c3.16-.66,4.71.88,3.83,4Q37.3,38,35.32,44.3c-.82,2.61-2.22,3.6-4.75,3.57s-3.76-.94-4.58-3.72c-1.27-4.3-2.52-8.61-3.72-12.94-.59-2.12-.14-3,1.6-3.46,2.19-.6,3.95.08,4.48,1.86.76,2.54,1.41,5.12,2.11,7.68Zm-.11,8.43A2.4,2.4,0,0,0,33.33,44c1.22-4.22,3.2-10.58,3.76-12.65s-1.28-2.08-1.53-1.81a6.76,6.76,0,0,0-.76,2.12c-.87,2.94-1.65,5.92-2.62,8.83-.24.74-.48,1.9-1.48,1.9s-1.25-1.16-1.46-1.86c-.86-2.86-2.1-7.62-2.88-10.51-.51-1.34-2.72-.79-2,1.07C25.58,35.4,26.83,39.7,28.08,44A2.55,2.55,0,0,0,30.84,45.84Z"/><path class="cls-2" d="M41.78,47.3c-2.08-.42-2.44-1.13-2-3.2S41,41.31,43,41.64c.57.09,1.15.21,1.71.29,2.56.35,2.17-.6.49-1.4-.7-.45-1.48-.75-2.21-1.15-2.31-1.3-3.59-3.22-3.27-5.94a6,6,0,0,1,4.42-5.2,10.41,10.41,0,0,1,6.39-.1,2.7,2.7,0,0,1,1.68,1.27c.58,1.07-.49,3.68-.93,3.93-.92.53-2.36,0-4.05,0-2.39,0,.94,1.49,1.7,1.88,4.19,2.19,5.55,5.63,3.53,9.18C50.66,47.56,45.89,48.14,41.78,47.3Zm6.29-15.78c1.32,0,2,0,2.1-.71s-.65-.79-1-.84a12.62,12.62,0,0,0-3.19,0c-2.53.36-3.84,1.47-4.16,3.29-.38,2.17.33,3.41,2.76,4.74.65.36,1.36.63,2,1,1.23.67,2.33,1.55,2,3.1S46.78,43.89,45.41,44c-.73.05-1.48-.14-2.23-.12-.41,0-1-.3-1.24.36s-.23,1.34.84,1.2a20.5,20.5,0,0,0,4.89,0,4.14,4.14,0,0,0,3.53-3.72c.29-2-.81-3.37-2.4-4.3-1.08-.63-4.52-1.74-4.52-3.82S46.75,31.52,48.07,31.52Z"/><path class="cls-2" d="M39.28,54.55c0,1.24-.06,2.48,0,3.72a.9.9,0,0,1-1.79.07c-.06-2.49-.07-5,0-7.45a1,1,0,0,1,1-.87c.59,0,.8.68.83,1,.11,1.15,0,2.32,0,3.48Z"/><path class="cls-2" d="M39.31,21a33.06,33.06,0,0,1-.05,3.45.91.91,0,1,1-1.82.08c0-2.38,0-4.77,0-7.15,0-1.6,1.78-1.56,1.82.16,0,1.15,0,2.3,0,3.46Z"/><path class="cls-2" d="M47.43,50c.93,1.16,1.87,2.31,2.7,3.55.84,1-.7,1.94-1.42,1.1-1-1-1.69-2.25-2.59-3.31A.94.94,0,1,1,47.43,50Z"/><path class="cls-2" d="M31.11,50.94A38.77,38.77,0,0,1,27.4,55.1c-.49.43-1.33-.55-.94-1.19a27,27,0,0,1,3-3.9C30.28,49.4,31.6,50.35,31.11,50.94Z"/><path class="cls-2" d="M50.22,21.66a47.51,47.51,0,0,1-3,3.91c-.41.53-1.77-.35-1.32-.95,1-1.4,2.08-2.74,3.15-4.08C49.71,19.94,50.8,21,50.22,21.66Z"/><path class="cls-2" d="M29.3,25.41c-.94-1.15-1.87-2.3-2.73-3.51-.89-1.06.4-2.1,1.34-1.06a27.91,27.91,0,0,1,2.77,3.47C31.61,25.67,30.08,26.51,29.3,25.41Z"/></g></g></svg>