<svg xmlns="http://www.w3.org/2000/svg" viewBox="0 0 163.08 163.08"><defs><style>.cls-1{fill:#0b1439;stroke:#bdd631;stroke-miterlimit:10;stroke-width:3.08px;}.cls-2,.cls-3{fill:#fff;}.cls-3{stroke:#fff;stroke-linecap:round;stroke-linejoin:round;stroke-width:1.03px;}</style></defs><g id="Layer_2" data-name="Layer 2"><g id="color_blocks" data-name="color blocks"><circle class="cls-1" cx="81.54" cy="81.54" r="80"/><path class="cls-2" d="M65.6,23.64a.55.55,0,0,0-.38-.16H60a.54.54,0,0,0-.54.55v5.78a.51.51,0,0,0,.16.38l8.7,8.7v17a.55.55,0,0,0,.55.54h7.46a.54.54,0,0,0,.55-.54V35.12a.55.55,0,0,0-.16-.38ZM99.67,51.73,95.94,48a.55.55,0,0,0-.39-.16H88.68V27.65a.54.54,0,0,0-.33-.51.56.56,0,0,0-.59.12h0l-7.47,7.47a.55.55,0,0,0-.16.38V55.85a.55.55,0,0,0,.55.55H95.55a.55.55,0,0,0,.39-.16l3.73-3.74a.51.51,0,0,0,.16-.38A.53.53,0,0,0,99.67,51.73Z"/><path class="cls-2" d="M47.6,64.68H44.68a.22.22,0,0,0-.22.16l-2.39,7.92-2.38-7.92a.21.21,0,0,0-.21-.16H36.56a.21.21,0,0,0-.18.09.24.24,0,0,0,0,.2l3.59,11.36a.22.22,0,0,0,.21.16h.7c-.05.15-1.33,4.31-1.33,4.31a.22.22,0,0,0,0,.2.26.26,0,0,0,.18.09h2.71a.21.21,0,0,0,.21-.16l1.52-4.59L47.81,65a.24.24,0,0,0,0-.2A.21.21,0,0,0,47.6,64.68Zm5.86-.23c-3.39,0-5.17,1.62-5.17,4.7V72c0,3.08,1.78,4.71,5.17,4.71S58.63,75.1,58.63,72V69.15C58.63,66.07,56.84,64.45,53.46,64.45Zm1.87,7.66c0,1.24-.54,1.74-1.87,1.74s-1.88-.5-1.88-1.74v-3c0-1.23.55-1.74,1.88-1.74s1.87.51,1.87,1.74ZM69.9,64.68H67.06a.22.22,0,0,0-.23.22v7.75a7.58,7.58,0,0,1-2.74.87c-.5,0-.68-.18-.68-.68V64.9a.22.22,0,0,0-.23-.22H60.34a.22.22,0,0,0-.23.22v8.24c0,2.38.94,3.59,2.79,3.59a11.41,11.41,0,0,0,4.41-1.11l.2.71a.22.22,0,0,0,.22.16H69.9a.23.23,0,0,0,.23-.22V64.9A.23.23,0,0,0,69.9,64.68Zm9.39-.23a11.38,11.38,0,0,0-4.4,1.1c0-.11-.21-.71-.21-.71a.24.24,0,0,0-.22-.16H72.29a.22.22,0,0,0-.22.22V76.27a.22.22,0,0,0,.22.22h2.85a.23.23,0,0,0,.23-.22V68.52a7.49,7.49,0,0,1,2.73-.87c.51,0,.69.18.69.69v7.93a.22.22,0,0,0,.22.22h2.85a.22.22,0,0,0,.22-.22V68C82.08,65.65,81.14,64.45,79.29,64.45Zm14.49.23H90.3a7.83,7.83,0,0,0-2-.23c-3.17,0-4.74,1.3-4.8,4v1.08A3.54,3.54,0,0,0,85,72.59a2.45,2.45,0,0,0-1,1.93c0,1.54.66,2.18,2.44,2.39l1.37.16,1.92.21c.82.09.87.16.87.69s-.1.68-2.48.68a15.65,15.65,0,0,1-3.77-.48.29.29,0,0,0-.18,0,.23.23,0,0,0-.1.15l-.34,2.13a.22.22,0,0,0,.15.25,16.74,16.74,0,0,0,4.45.59c4.11,0,5.36-.84,5.36-3.61,0-1.88-.79-2.77-2.63-3l-.92-.1-2.37-.25c-.42,0-.42-.16-.42-.27a1,1,0,0,1,.52-.68l.58,0c4,0,4.8-2.14,4.8-3.93V68.45a4.11,4.11,0,0,0-.32-1.62l1-.28a.24.24,0,0,0,.16-.22V64.9A.22.22,0,0,0,93.78,64.68ZM90,69.41c0,1-.44,1.31-1.69,1.31s-1.67-.34-1.67-1.31v-.87c0-.86.28-1.36,1.67-1.36s1.69.5,1.69,1.36Zm8.73-9.73L96,61.55c-.09.07-.19.16-.19.27V76.27a.22.22,0,0,0,.22.22h2.85a.22.22,0,0,0,.22-.22V59.87A.21.21,0,0,0,99,59.7.18.18,0,0,0,98.77,59.68Zm5.83,5h-2.85a.22.22,0,0,0-.22.22V76.27a.22.22,0,0,0,.22.22h2.85a.22.22,0,0,0,.22-.22V64.9A.22.22,0,0,0,104.6,64.68Zm0-4.9h-2.85a.22.22,0,0,0-.22.23V63.3a.22.22,0,0,0,.22.22h2.85a.22.22,0,0,0,.22-.22V60A.22.22,0,0,0,104.6,59.78Zm10.12.13a9,9,0,0,0-2.51-.34c-2.58,0-3.84,1.23-3.84,3.75v1.36h-1.59a.22.22,0,0,0-.23.22v2.27a.22.22,0,0,0,.23.22h1.59v8.88a.22.22,0,0,0,.23.22h2.84a.22.22,0,0,0,.23-.22V67.39h2.5a.23.23,0,0,0,.23-.2l.16-2.27a.24.24,0,0,0-.06-.17.2.2,0,0,0-.16-.07h-2.67v-1.2c0-.83.16-1.13,1.06-1.13a7.55,7.55,0,0,1,1.58.19.23.23,0,0,0,.18,0,.21.21,0,0,0,.09-.15l.31-2.2A.23.23,0,0,0,114.72,59.91Zm5.38,4.54c-3.23,0-4.94,1.61-4.94,4.65v3c0,3.15,1.6,4.62,5,4.62a12.39,12.39,0,0,0,4.25-.74.22.22,0,0,0,.14-.26l-.44-2.15a.22.22,0,0,0-.11-.14.23.23,0,0,0-.18,0,11.46,11.46,0,0,1-3.41.53c-1.7,0-2-.52-2-1.69V71.9h6.1a.23.23,0,0,0,.22-.23V69.24C124.78,67.18,124.3,64.45,120.1,64.45Zm1.53,4.71h-3.17v-.34c0-1.1.51-1.59,1.66-1.59s1.51.61,1.51,1.59Zm4.4,5.65a.72.72,0,1,0,.72.72A.7.7,0,0,0,126,74.81Zm0,1.28a.56.56,0,1,1,.55-.56A.52.52,0,0,1,126,76.09Zm.25-.64v-.09c0-.11-.07-.17-.21-.17h-.26v.66h.11v-.22h.14l.16.22h.13l-.17-.24A.16.16,0,0,0,126.28,75.45Zm-.12,0s0,.08-.09.08h-.15v-.24h.15c.06,0,.09,0,.09.08Z"/><line class="cls-3" x1="33.1" y1="83.91" x2="129.98" y2="83.91"/><path class="cls-2" d="M102.6,112.65c.28-1.69.93-4,1.35-5.69,1.83-7.25,2.41-9.37,2.74-10.67l-2.82.42c-1.59.24-3.18.52-4.78.72a5.4,5.4,0,0,1-1.88-.08,1.14,1.14,0,0,1-.51-2,2.93,2.93,0,0,1,1.35-.73c2.68-.57,5.36-1.13,8.06-1.6q5.46-.95,11-1.72a26.67,26.67,0,0,1,4-.2c1,0,1.69.48,1.76,1.08s-.41,1.23-1.44,1.48c-1.93.48-3.89.86-5.84,1.22-1.79.33-3.59.58-5.38.85-.6.09-.65.39-.93,1.82,0,0-2.45,12.74-2.58,13.21-.28,1-.39,1.35-.47,1.62,1.28-.1,2.49-.21,3.71-.29,3.71-.22,7.42-.61,11.13-.62.67,0,1.36,0,2,.08.9,0,2.13.24,2.34,1,.34,1.83-2.66,1.79-4.19,2-3.67.41-7.34.59-11,.89s-7.2.48-10.8.68c-.75,0-3.42.21-4.07-.36-.12,0-.46-.64-.15-1.15s.86-.63,2.22-1"/><path class="cls-2" d="M64.43,111.56q6.72-10.4,13.42-20.79a6.52,6.52,0,0,0,.73-1.53,1.62,1.62,0,0,0-.71-1.94,1.65,1.65,0,0,0-2,.37,8.38,8.38,0,0,0-1,1.31Q70,96.82,65,104.7c-.13.21-.29.42-.43.63l-.19-.06c0-.45-.07-.9-.1-1.34-.14-2.17-.18-4.34-.36-6.51a1.19,1.19,0,0,0-.86-1.18,1.08,1.08,0,0,0-1.21.54l-.1.25a7.51,7.51,0,0,0-.15,1.06c-.1,3.82-.18,7.65-.28,11.48a2.06,2.06,0,0,1-.32,1.06c-2.9,4.36-5.8,8.72-8.77,13-2.57,3.76-5.24,7.46-7.84,11.19a7.34,7.34,0,0,0-.84,1.62,1,1,0,0,0,.29,1.3,1.05,1.05,0,0,0,1.33-.06,9.07,9.07,0,0,0,1.56-1.4c1.4-1.7,2.83-3.38,4.1-5.17,3.44-4.86,6.81-9.78,10.21-14.67l.51-.69"/><path d="M86,110.42a4.18,4.18,0,0,1,.89.4,1.83,1.83,0,0,0-1.08-.47A.44.44,0,0,0,86,110.42Z"/><path class="cls-2" d="M87.4,110.19c-.12-3.38-16.09,2.65-19,2.74l0,0L85.07,96.48l.18.16c-.48,1.72-5.73,9.75-4.13,10.45,1.26.93,2-.53,2.53-1.48Q88,98,92.24,90.29c.51-.85.85-2.34-.18-2.85a1.41,1.41,0,0,0-1.69.32c-9.27,8-18.07,16.59-26.71,25.3-2.1,3.48.72,4.51,3.75,3.54,5.92-1.38,11.82-2.82,17.74-4.16a2.56,2.56,0,0,0,2.29-1.82l0,0A1.19,1.19,0,0,0,87.4,110.19Z"/><path class="cls-2" d="M102.48,106.35c-4,1-7.49,3.22-11.35,4.58,8.41-26.56,3.46-25.73-3.43-.84h0c-.18.29-.11.67-.2,1l0,0c-1.39,8,12.34-.21,12.8-.49.75-.45,3.11-2,3.32-2.82C103.91,106.68,103.58,106.19,102.48,106.35Z"/><polygon points="86.95 110.84 86.95 110.84 86.95 110.84 86.95 110.84"/><path class="cls-2" d="M64.83,87.55a1.43,1.43,0,0,0-1.75.32,4,4,0,0,0-.81,1.06A111.15,111.15,0,0,0,55,104.67c-.07.23-.17.45-.26.68a1.65,1.65,0,0,1-.16-.74c-.14-2.69-.27-5.38-.43-8.07a5.72,5.72,0,0,0-.28-1.6,1.63,1.63,0,0,0-2.66-.7,5.05,5.05,0,0,0-.75.84c-2.32,3.07-4.65,6.14-6.95,9.23-2.46,3.3-4.91,6.6-7.32,9.94a20.38,20.38,0,0,0-1.71,2.93,1.26,1.26,0,0,0,2,1.46,13.63,13.63,0,0,0,1.62-1.78c4.16-5.54,8.29-11.1,12.44-16.64.14-.2.3-.38.52-.66a4.23,4.23,0,0,1,.07.43c0,3.71,0,7.42,0,11.13,0,1.51-.06,3,0,4.54a1.77,1.77,0,0,0,3.43.67,18.31,18.31,0,0,0,.71-2,112.27,112.27,0,0,1,6.65-17.46c.12-.24.29-.46.44-.7l.09-.17c.12-.28.21-.57.34-.85.77-1.54,1.57-3.07,2.32-4.62a4.56,4.56,0,0,0,.43-1.34A1.46,1.46,0,0,0,64.83,87.55Z"/></g></g></svg>